<svg width="402" height="150" viewBox="0 0 402 150" fill="none" xmlns="http://www.w3.org/2000/svg">
<path d="M128.211 60C128.211 87.6142 105.826 110 78.2114 110C50.5972 110 9.99999 73.3635 9.99999 43.3634C9.99999 15.7492 50.5972 10 78.2114 10C105.826 10 128.211 32.3858 128.211 60Z" stroke="black" stroke-width="15"/>
<path d="M144.211 90C144.211 117.614 121.826 140 94.2114 140C66.5972 140 26 103.363 26 73.3634C26 45.7492 66.5972 40 94.2114 40C121.826 40 144.211 62.3858 144.211 90Z" stroke="#2C3CA3" stroke-width="15"/>
<path d="M159.601 95.5V57H183.856V62.72H165.541V89.78H183.856V95.5H159.601ZM162.296 78.615V72.895H180.831V78.615H162.296ZM200.61 95.5L188.4 66.625H194.505L203.305 88.24L202.26 88.735L211.665 66.625H217.495L204.68 95.5H200.61ZM235.348 96.05C232.378 96.05 229.738 95.4267 227.428 94.18C225.154 92.8967 223.358 91.155 222.038 88.955C220.754 86.755 220.113 84.225 220.113 81.365C220.113 79.0917 220.479 77.02 221.213 75.15C221.946 73.28 222.954 71.6667 224.238 70.31C225.558 68.9167 227.116 67.8533 228.913 67.12C230.746 66.35 232.726 65.965 234.853 65.965C236.723 65.965 238.464 66.3317 240.078 67.065C241.691 67.7617 243.084 68.7333 244.258 69.98C245.468 71.2267 246.384 72.7117 247.008 74.435C247.668 76.1217 247.979 77.9733 247.943 79.99L247.888 82.41H224.293L223.028 77.9H242.993L242.168 78.835V77.515C242.058 76.305 241.654 75.2233 240.958 74.27C240.261 73.3167 239.381 72.565 238.318 72.015C237.254 71.465 236.099 71.19 234.853 71.19C232.873 71.19 231.204 71.575 229.848 72.345C228.491 73.0783 227.464 74.1783 226.768 75.645C226.071 77.075 225.723 78.8533 225.723 80.98C225.723 82.9967 226.144 84.7567 226.988 86.26C227.831 87.7267 229.023 88.8633 230.563 89.67C232.103 90.4767 233.881 90.88 235.898 90.88C237.328 90.88 238.648 90.6417 239.858 90.165C241.104 89.6883 242.443 88.8267 243.873 87.58L246.733 91.595C245.853 92.475 244.771 93.245 243.488 93.905C242.241 94.565 240.903 95.0967 239.473 95.5C238.079 95.8667 236.704 96.05 235.348 96.05ZM254.099 95.5V66.625H259.764V72.565L258.774 73.225C259.141 71.9417 259.856 70.7683 260.919 69.705C261.982 68.605 263.247 67.725 264.714 67.065C266.181 66.3683 267.684 66.02 269.224 66.02C271.424 66.02 273.257 66.46 274.724 67.34C276.191 68.1833 277.291 69.485 278.024 71.245C278.757 73.005 279.124 75.2233 279.124 77.9V95.5H273.459V78.285C273.459 76.635 273.239 75.2783 272.799 74.215C272.359 73.115 271.681 72.3267 270.764 71.85C269.847 71.3367 268.711 71.1167 267.354 71.19C266.254 71.19 265.246 71.3733 264.329 71.74C263.412 72.07 262.606 72.5467 261.909 73.17C261.249 73.7933 260.717 74.5267 260.314 75.37C259.947 76.1767 259.764 77.0567 259.764 78.01V95.5H256.959C256.482 95.5 256.006 95.5 255.529 95.5C255.052 95.5 254.576 95.5 254.099 95.5ZM290.384 95.5V59.255H296.049V95.5H290.384ZM284.389 72.125V66.625H302.759V72.125H284.389ZM318.037 96.05C315.984 96.05 314.187 95.5733 312.647 94.62C311.144 93.6667 309.971 92.3283 309.127 90.605C308.321 88.8817 307.917 86.8283 307.917 84.445V66.625H313.582V82.905C313.582 84.5917 313.839 86.0583 314.352 87.305C314.902 88.515 315.672 89.45 316.662 90.11C317.689 90.77 318.917 91.1 320.347 91.1C321.411 91.1 322.382 90.935 323.262 90.605C324.142 90.2383 324.894 89.7433 325.517 89.12C326.177 88.4967 326.691 87.745 327.057 86.865C327.424 85.985 327.607 85.0317 327.607 84.005V66.625H333.272V95.5H327.607V89.45L328.597 88.79C328.157 90.1467 327.406 91.375 326.342 92.475C325.316 93.575 324.087 94.455 322.657 95.115C321.227 95.7383 319.687 96.05 318.037 96.05ZM341.218 95.5V66.625H346.938V75.7L346.388 73.5C346.792 72.1067 347.47 70.8417 348.423 69.705C349.413 68.5683 350.532 67.67 351.778 67.01C353.062 66.35 354.382 66.02 355.738 66.02C356.362 66.02 356.948 66.075 357.498 66.185C358.085 66.295 358.543 66.4233 358.873 66.57L357.388 72.73C356.948 72.5467 356.453 72.4 355.903 72.29C355.39 72.1433 354.877 72.07 354.363 72.07C353.373 72.07 352.42 72.2717 351.503 72.675C350.623 73.0417 349.835 73.5733 349.138 74.27C348.478 74.93 347.947 75.7183 347.543 76.635C347.14 77.515 346.938 78.4867 346.938 79.55V95.5H341.218ZM375.641 96.05C372.671 96.05 370.031 95.4267 367.721 94.18C365.447 92.8967 363.651 91.155 362.331 88.955C361.047 86.755 360.406 84.225 360.406 81.365C360.406 79.0917 360.772 77.02 361.506 75.15C362.239 73.28 363.247 71.6667 364.531 70.31C365.851 68.9167 367.409 67.8533 369.206 67.12C371.039 66.35 373.019 65.965 375.146 65.965C377.016 65.965 378.757 66.3317 380.371 67.065C381.984 67.7617 383.377 68.7333 384.551 69.98C385.761 71.2267 386.677 72.7117 387.301 74.435C387.961 76.1217 388.272 77.9733 388.236 79.99L388.181 82.41H364.586L363.321 77.9H383.286L382.461 78.835V77.515C382.351 76.305 381.947 75.2233 381.251 74.27C380.554 73.3167 379.674 72.565 378.611 72.015C377.547 71.465 376.392 71.19 375.146 71.19C373.166 71.19 371.497 71.575 370.141 72.345C368.784 73.0783 367.757 74.1783 367.061 75.645C366.364 77.075 366.016 78.8533 366.016 80.98C366.016 82.9967 366.437 84.7567 367.281 86.26C368.124 87.7267 369.316 88.8633 370.856 89.67C372.396 90.4767 374.174 90.88 376.191 90.88C377.621 90.88 378.941 90.6417 380.151 90.165C381.397 89.6883 382.736 88.8267 384.166 87.58L387.026 91.595C386.146 92.475 385.064 93.245 383.781 93.905C382.534 94.565 381.196 95.0967 379.766 95.5C378.372 95.8667 376.997 96.05 375.641 96.05Z" fill="black"/>
</svg>
