<svg width="745" height="516" viewBox="0 0 745 516" fill="none" xmlns="http://www.w3.org/2000/svg">
<circle cx="197.5" cy="100.5" r="12.5" fill="#AE3838"/>
<circle cx="232.5" cy="100.5" r="12.5" fill="#AE3838"/>
<circle cx="267.5" cy="100.5" r="12.5" fill="#AE3838"/>
<circle cx="302.5" cy="100.5" r="12.5" fill="#AE3838"/>
<circle cx="337.5" cy="100.5" r="12.5" fill="#AE3838"/>
<circle cx="372.5" cy="100.5" r="12.5" fill="#AE3838"/>
<circle cx="407.5" cy="100.5" r="12.5" fill="#AE3838"/>
<circle cx="442.5" cy="100.5" r="12.5" fill="#AE3838"/>
<circle cx="477.5" cy="100.5" r="12.5" fill="#AE3838"/>
<circle cx="512.5" cy="100.5" r="12.5" fill="#AE3838"/>
<circle cx="547.5" cy="100.5" r="12.5" fill="#AE3838"/>
<circle cx="162.5" cy="145.5" r="12.5" fill="#AE3838"/>
<circle cx="197.5" cy="145.5" r="12.5" fill="#AE3838"/>
<circle cx="232.5" cy="145.5" r="12.5" fill="#AE3838"/>
<circle cx="267.5" cy="145.5" r="12.5" fill="#AE3838"/>
<circle cx="302.5" cy="145.5" r="12.5" fill="#AE3838"/>
<circle cx="337.5" cy="145.5" r="12.5" fill="#AE3838"/>
<circle cx="372.5" cy="145.5" r="12.5" fill="#AE3838"/>
<circle cx="407.5" cy="145.5" r="12.5" fill="#AE3838"/>
<circle cx="442.5" cy="145.5" r="12.5" fill="#AE3838"/>
<circle cx="477.5" cy="145.5" r="12.5" fill="#AE3838"/>
<circle cx="512.5" cy="145.5" r="12.5" fill="#AE3838"/>
<circle cx="547.5" cy="145.5" r="12.5" fill="#AE3838"/>
<circle cx="582.5" cy="145.5" r="12.5" fill="#AE3838"/>
<circle cx="127.5" cy="190.5" r="12.5" fill="#44659A"/>
<circle cx="162.5" cy="190.5" r="12.5" fill="#44659A"/>
<circle cx="197.5" cy="190.5" r="12.5" fill="#44659A"/>
<circle cx="232.5" cy="190.5" r="12.5" fill="#44659A"/>
<circle cx="267.5" cy="190.5" r="12.5" fill="#44659A"/>
<circle cx="302.5" cy="190.5" r="12.5" fill="#44659A"/>
<circle cx="337.5" cy="190.5" r="12.5" fill="#44659A"/>
<circle cx="372.5" cy="190.5" r="12.5" fill="#44659A"/>
<circle cx="407.5" cy="190.5" r="12.5" fill="#44659A"/>
<circle cx="442.5" cy="190.5" r="12.5" fill="#44659A"/>
<circle cx="477.5" cy="190.5" r="12.5" fill="#44659A"/>
<circle cx="512.5" cy="190.5" r="12.5" fill="#44659A"/>
<circle cx="547.5" cy="190.5" r="12.5" fill="#44659A"/>
<circle cx="582.5" cy="190.5" r="12.5" fill="#44659A"/>
<circle cx="617.5" cy="190.5" r="12.5" fill="#44659A"/>
<circle cx="92.5" cy="235.5" r="12.5" fill="#44659A"/>
<circle cx="127.5" cy="235.5" r="12.5" fill="#44659A"/>
<circle cx="162.5" cy="235.5" r="12.5" fill="#44659A"/>
<circle cx="197.5" cy="235.5" r="12.5" fill="#44659A"/>
<circle cx="232.5" cy="235.5" r="12.5" fill="#44659A"/>
<circle cx="267.5" cy="235.5" r="12.5" fill="#44659A"/>
<circle cx="302.5" cy="235.5" r="12.5" fill="#44659A"/>
<circle cx="337.5" cy="235.5" r="12.5" fill="#44659A"/>
<circle cx="372.5" cy="235.5" r="12.5" fill="#44659A"/>
<circle cx="407.5" cy="235.5" r="12.5" fill="#44659A"/>
<circle cx="442.5" cy="235.5" r="12.5" fill="#44659A"/>
<circle cx="477.5" cy="235.5" r="12.5" fill="#44659A"/>
<circle cx="512.5" cy="235.5" r="12.5" fill="#44659A"/>
<circle cx="547.5" cy="235.5" r="12.5" fill="#44659A"/>
<circle cx="582.5" cy="235.5" r="12.5" fill="#44659A"/>
<circle cx="617.5" cy="235.5" r="12.5" fill="#44659A"/>
<circle cx="652.5" cy="235.5" r="12.5" fill="#44659A"/>
<circle cx="127.5" cy="280.5" r="12.5" fill="#2F8440"/>
<circle cx="162.5" cy="280.5" r="12.5" fill="#2F8440"/>
<circle cx="197.5" cy="280.5" r="12.5" fill="#2F8440"/>
<circle cx="232.5" cy="280.5" r="12.5" fill="#2F8440"/>
<circle cx="267.5" cy="280.5" r="12.5" fill="#2F8440"/>
<circle cx="302.5" cy="280.5" r="12.5" fill="#2F8440"/>
<circle cx="337.5" cy="280.5" r="12.5" fill="#2F8440"/>
<circle cx="372.5" cy="280.5" r="12.5" fill="#2F8440"/>
<circle cx="407.5" cy="280.5" r="12.5" fill="#2F8440"/>
<circle cx="442.5" cy="280.5" r="12.5" fill="#2F8440"/>
<circle cx="477.5" cy="280.5" r="12.5" fill="#2F8440"/>
<circle cx="512.5" cy="280.5" r="12.5" fill="#2F8440"/>
<circle cx="547.5" cy="280.5" r="12.5" fill="#2F8440"/>
<circle cx="582.5" cy="280.5" r="12.5" fill="#2F8440"/>
<circle cx="617.5" cy="280.5" r="12.5" fill="#2F8440"/>
<circle cx="127.5" cy="325.5" r="12.5" fill="#2F8440"/>
<circle cx="162.5" cy="325.5" r="12.5" fill="#2F8440"/>
<circle cx="197.5" cy="325.5" r="12.5" fill="#2F8440"/>
<circle cx="232.5" cy="325.5" r="12.5" fill="#2F8440"/>
<circle cx="267.5" cy="325.5" r="12.5" fill="#2F8440"/>
<circle cx="302.5" cy="325.5" r="12.5" fill="#2F8440"/>
<circle cx="337.5" cy="325.5" r="12.5" fill="#2F8440"/>
<circle cx="372.5" cy="325.5" r="12.5" fill="#2F8440"/>
<circle cx="407.5" cy="325.5" r="12.5" fill="#2F8440"/>
<circle cx="442.5" cy="325.5" r="12.5" fill="#2F8440"/>
<circle cx="477.5" cy="325.5" r="12.5" fill="#2F8440"/>
<circle cx="512.5" cy="325.5" r="12.5" fill="#2F8440"/>
<circle cx="547.5" cy="325.5" r="12.5" fill="#2F8440"/>
<circle cx="582.5" cy="325.5" r="12.5" fill="#2F8440"/>
<circle cx="617.5" cy="325.5" r="12.5" fill="#2F8440"/>
<circle cx="145" cy="370.5" r="12.5" fill="#2F8440"/>
<circle cx="180" cy="370.5" r="12.5" fill="#2F8440"/>
<circle cx="215" cy="370.5" r="12.5" fill="#2F8440"/>
<circle cx="250" cy="370.5" r="12.5" fill="#2F8440"/>
<circle cx="285" cy="370.5" r="12.5" fill="#2F8440"/>
<circle cx="320" cy="370.5" r="12.5" fill="#2F8440"/>
<circle cx="355" cy="370.5" r="12.5" fill="#2F8440"/>
<circle cx="390" cy="370.5" r="12.5" fill="#2F8440"/>
<circle cx="425" cy="370.5" r="12.5" fill="#2F8440"/>
<circle cx="460" cy="370.5" r="12.5" fill="#2F8440"/>
<circle cx="495" cy="370.5" r="12.5" fill="#2F8440"/>
<circle cx="530" cy="370.5" r="12.5" fill="#2F8440"/>
<circle cx="565" cy="370.5" r="12.5" fill="#2F8440"/>
<circle cx="600" cy="370.5" r="12.5" fill="#2F8440"/>
<circle cx="162.5" cy="415.5" r="12.5" fill="#EBC922"/>
<circle cx="197.5" cy="415.5" r="12.5" fill="#EBC922"/>
<circle cx="232.5" cy="415.5" r="12.5" fill="#EBC922"/>
<circle cx="267.5" cy="415.5" r="12.5" fill="#EBC922"/>
<circle cx="302.5" cy="415.5" r="12.5" fill="#EBC922"/>
<circle cx="337.5" cy="415.5" r="12.5" fill="#EBC922"/>
<circle cx="372.5" cy="415.5" r="12.5" fill="#EBC922"/>
<circle cx="407.5" cy="415.5" r="12.5" fill="#EBC922"/>
<circle cx="442.5" cy="415.5" r="12.5" fill="#EBC922"/>
<circle cx="477.5" cy="415.5" r="12.5" fill="#EBC922"/>
<circle cx="512.5" cy="415.5" r="12.5" fill="#EBC922"/>
<circle cx="547.5" cy="415.5" r="12.5" fill="#EBC922"/>
<circle cx="582.5" cy="415.5" r="12.5" fill="#EBC922"/>
</svg>
